<svg xmlns="http://www.w3.org/2000/svg" width="42.646" height="37.482" viewBox="0 0 42.646 37.482"><defs><style>.a{fill:#fff;}</style></defs><g transform="translate(0 0)"><path class="a" d="M13.74,24.988H36.4a1.25,1.25,0,0,0,1.2-.906l5-17.491A1.249,1.249,0,0,0,41.4,5H10.858L9.965.979A1.25,1.25,0,0,0,8.746,0h-7.5a1.249,1.249,0,0,0,0,2.5H7.743l4.511,20.3a3.748,3.748,0,0,0,1.489,7.187H36.4a1.249,1.249,0,1,0,0-2.5H13.743a1.249,1.249,0,0,1,0-2.5ZM39.74,7.5,35.456,22.489H14.745L11.414,7.5Zm0,0"/><path class="a" d="M150,363.748A3.748,3.748,0,1,0,153.748,360,3.752,3.752,0,0,0,150,363.748Zm3.748-1.249a1.249,1.249,0,1,1-1.249,1.249A1.251,1.251,0,0,1,153.748,362.5Zm0,0" transform="translate(-137.506 -330.015)"/><path class="a" d="M362,363.748A3.748,3.748,0,1,0,365.748,360,3.752,3.752,0,0,0,362,363.748Zm3.748-1.249a1.249,1.249,0,1,1-1.249,1.249A1.251,1.251,0,0,1,365.748,362.5Zm0,0" transform="translate(-331.848 -330.015)"/></g></svg>